<?xml version='1.0' encoding='UTF-8'?>
<svg width="49mm" height="49mm" version="1.1" viewBox="0 0 49 49" xmlns="http://www.w3.org/2000/svg"><path d="M4,4H5V5H4zM5,4H6V5H5zM6,4H7V5H6zM7,4H8V5H7zM8,4H9V5H8zM9,4H10V5H9zM10,4H11V5H10zM13,4H14V5H13zM15,4H16V5H15zM17,4H18V5H17zM20,4H21V5H20zM23,4H24V5H23zM26,4H27V5H26zM27,4H28V5H27zM28,4H29V5H28zM29,4H30V5H29zM38,4H39V5H38zM39,4H40V5H39zM40,4H41V5H40zM41,4H42V5H41zM42,4H43V5H42zM43,4H44V5H43zM44,4H45V5H44zM4,5H5V6H4zM10,5H11V6H10zM15,5H16V6H15zM18,5H19V6H18zM20,5H21V6H20zM22,5H23V6H22zM25,5H26V6H25zM28,5H29V6H28zM29,5H30V6H29zM30,5H31V6H30zM32,5H33V6H32zM34,5H35V6H34zM35,5H36V6H35zM38,5H39V6H38zM44,5H45V6H44zM4,6H5V7H4zM6,6H7V7H6zM7,6H8V7H7zM8,6H9V7H8zM10,6H11V7H10zM12,6H13V7H12zM13,6H14V7H13zM16,6H17V7H16zM17,6H18V7H17zM19,6H20V7H19zM20,6H21V7H20zM21,6H22V7H21zM25,6H26V7H25zM26,6H27V7H26zM28,6H29V7H28zM29,6H30V7H29zM30,6H31V7H30zM31,6H32V7H31zM32,6H33V7H32zM36,6H37V7H36zM38,6H39V7H38zM40,6H41V7H40zM41,6H42V7H41zM42,6H43V7H42zM44,6H45V7H44zM4,7H5V8H4zM6,7H7V8H6zM7,7H8V8H7zM8,7H9V8H8zM10,7H11V8H10zM12,7H13V8H12zM13,7H14V8H13zM14,7H15V8H14zM18,7H19V8H18zM22,7H23V8H22zM23,7H24V8H23zM25,7H26V8H25zM27,7H28V8H27zM30,7H31V8H30zM33,7H34V8H33zM36,7H37V8H36zM38,7H39V8H38zM40,7H41V8H40zM41,7H42V8H41zM42,7H43V8H42zM44,7H45V8H44zM4,8H5V9H4zM6,8H7V9H6zM7,8H8V9H7zM8,8H9V9H8zM10,8H11V9H10zM15,8H16V9H15zM16,8H17V9H16zM21,8H22V9H21zM23,8H24V9H23zM24,8H25V9H24zM27,8H28V9H27zM28,8H29V9H28zM29,8H30V9H29zM32,8H33V9H32zM34,8H35V9H34zM35,8H36V9H35zM38,8H39V9H38zM40,8H41V9H40zM41,8H42V9H41zM42,8H43V9H42zM44,8H45V9H44zM4,9H5V10H4zM10,9H11V10H10zM17,9H18V10H17zM20,9H21V10H20zM21,9H22V10H21zM22,9H23V10H22zM23,9H24V10H23zM27,9H28V10H27zM30,9H31V10H30zM33,9H34V10H33zM34,9H35V10H34zM36,9H37V10H36zM38,9H39V10H38zM44,9H45V10H44zM4,10H5V11H4zM5,10H6V11H5zM6,10H7V11H6zM7,10H8V11H7zM8,10H9V11H8zM9,10H10V11H9zM10,10H11V11H10zM12,10H13V11H12zM14,10H15V11H14zM16,10H17V11H16zM18,10H19V11H18zM20,10H21V11H20zM22,10H23V11H22zM24,10H25V11H24zM26,10H27V11H26zM28,10H29V11H28zM30,10H31V11H30zM32,10H33V11H32zM34,10H35V11H34zM36,10H37V11H36zM38,10H39V11H38zM39,10H40V11H39zM40,10H41V11H40zM41,10H42V11H41zM42,10H43V11H42zM43,10H44V11H43zM44,10H45V11H44zM13,11H14V12H13zM15,11H16V12H15zM16,11H17V12H16zM18,11H19V12H18zM19,11H20V12H19zM22,11H23V12H22zM23,11H24V12H23zM25,11H26V12H25zM27,11H28V12H27zM28,11H29V12H28zM30,11H31V12H30zM34,11H35V12H34zM35,11H36V12H35zM7,12H8V13H7zM8,12H9V13H8zM10,12H11V13H10zM11,12H12V13H11zM13,12H14V13H13zM15,12H16V13H15zM16,12H17V13H16zM17,12H18V13H17zM18,12H19V13H18zM19,12H20V13H19zM21,12H22V13H21zM23,12H24V13H23zM26,12H27V13H26zM27,12H28V13H27zM28,12H29V13H28zM29,12H30V13H29zM30,12H31V13H30zM32,12H33V13H32zM33,12H34V13H33zM35,12H36V13H35zM41,12H42V13H41zM42,12H43V13H42zM7,13H8V14H7zM8,13H9V14H8zM9,13H10V14H9zM12,13H13V14H12zM14,13H15V14H14zM19,13H20V14H19zM24,13H25V14H24zM28,13H29V14H28zM29,13H30V14H29zM30,13H31V14H30zM31,13H32V14H31zM33,13H34V14H33zM34,13H35V14H34zM35,13H36V14H35zM39,13H40V14H39zM40,13H41V14H40zM4,14H5V15H4zM6,14H7V15H6zM7,14H8V15H7zM8,14H9V15H8zM10,14H11V15H10zM11,14H12V15H11zM13,14H14V15H13zM15,14H16V15H15zM17,14H18V15H17zM18,14H19V15H18zM19,14H20V15H19zM22,14H23V15H22zM25,14H26V15H25zM26,14H27V15H26zM27,14H28V15H27zM28,14H29V15H28zM31,14H32V15H31zM32,14H33V15H32zM33,14H34V15H33zM34,14H35V15H34zM37,14H38V15H37zM40,14H41V15H40zM42,14H43V15H42zM43,14H44V15H43zM6,15H7V16H6zM7,15H8V16H7zM8,15H9V16H8zM16,15H17V16H16zM18,15H19V16H18zM21,15H22V16H21zM23,15H24V16H23zM27,15H28V16H27zM28,15H29V16H28zM29,15H30V16H29zM33,15H34V16H33zM35,15H36V16H35zM36,15H37V16H36zM39,15H40V16H39zM41,15H42V16H41zM44,15H45V16H44zM4,16H5V17H4zM5,16H6V17H5zM6,16H7V17H6zM7,16H8V17H7zM8,16H9V17H8zM9,16H10V17H9zM10,16H11V17H10zM11,16H12V17H11zM15,16H16V17H15zM16,16H17V17H16zM18,16H19V17H18zM19,16H20V17H19zM20,16H21V17H20zM22,16H23V17H22zM24,16H25V17H24zM26,16H27V17H26zM27,16H28V17H27zM31,16H32V17H31zM32,16H33V17H32zM36,16H37V17H36zM38,16H39V17H38zM39,16H40V17H39zM43,16H44V17H43zM44,16H45V17H44zM5,17H6V18H5zM6,17H7V18H6zM8,17H9V18H8zM9,17H10V18H9zM11,17H12V18H11zM13,17H14V18H13zM15,17H16V18H15zM17,17H18V18H17zM20,17H21V18H20zM21,17H22V18H21zM22,17H23V18H22zM24,17H25V18H24zM27,17H28V18H27zM29,17H30V18H29zM30,17H31V18H30zM32,17H33V18H32zM34,17H35V18H34zM38,17H39V18H38zM39,17H40V18H39zM40,17H41V18H40zM41,17H42V18H41zM42,17H43V18H42zM43,17H44V18H43zM44,17H45V18H44zM6,18H7V19H6zM9,18H10V19H9zM10,18H11V19H10zM12,18H13V19H12zM13,18H14V19H13zM14,18H15V19H14zM15,18H16V19H15zM17,18H18V19H17zM18,18H19V19H18zM20,18H21V19H20zM25,18H26V19H25zM29,18H30V19H29zM30,18H31V19H30zM32,18H33V19H32zM33,18H34V19H33zM34,18H35V19H34zM35,18H36V19H35zM37,18H38V19H37zM38,18H39V19H38zM40,18H41V19H40zM42,18H43V19H42zM44,18H45V19H44zM5,19H6V20H5zM8,19H9V20H8zM9,19H10V20H9zM11,19H12V20H11zM15,19H16V20H15zM18,19H19V20H18zM19,19H20V20H19zM21,19H22V20H21zM23,19H24V20H23zM24,19H25V20H24zM25,19H26V20H25zM27,19H28V20H27zM28,19H29V20H28zM31,19H32V20H31zM34,19H35V20H34zM36,19H37V20H36zM37,19H38V20H37zM39,19H40V20H39zM42,19H43V20H42zM43,19H44V20H43zM44,19H45V20H44zM4,20H5V21H4zM8,20H9V21H8zM10,20H11V21H10zM12,20H13V21H12zM16,20H17V21H16zM17,20H18V21H17zM20,20H21V21H20zM21,20H22V21H21zM25,20H26V21H25zM26,20H27V21H26zM29,20H30V21H29zM30,20H31V21H30zM36,20H37V21H36zM37,20H38V21H37zM43,20H44V21H43zM5,21H6V22H5zM6,21H7V22H6zM7,21H8V22H7zM8,21H9V22H8zM15,21H16V22H15zM16,21H17V22H16zM19,21H20V22H19zM21,21H22V22H21zM22,21H23V22H22zM24,21H25V22H24zM25,21H26V22H25zM28,21H29V22H28zM31,21H32V22H31zM34,21H35V22H34zM35,21H36V22H35zM36,21H37V22H36zM37,21H38V22H37zM40,21H41V22H40zM43,21H44V22H43zM4,22H5V23H4zM5,22H6V23H5zM10,22H11V23H10zM13,22H14V23H13zM14,22H15V23H14zM16,22H17V23H16zM17,22H18V23H17zM18,22H19V23H18zM20,22H21V23H20zM24,22H25V23H24zM26,22H27V23H26zM27,22H28V23H27zM28,22H29V23H28zM31,22H32V23H31zM32,22H33V23H32zM35,22H36V23H35zM36,22H37V23H36zM39,22H40V23H39zM40,22H41V23H40zM41,22H42V23H41zM42,22H43V23H42zM44,22H45V23H44zM4,23H5V24H4zM7,23H8V24H7zM8,23H9V24H8zM9,23H10V24H9zM11,23H12V24H11zM15,23H16V24H15zM16,23H17V24H16zM17,23H18V24H17zM18,23H19V24H18zM21,23H22V24H21zM22,23H23V24H22zM23,23H24V24H23zM26,23H27V24H26zM28,23H29V24H28zM30,23H31V24H30zM31,23H32V24H31zM32,23H33V24H32zM37,23H38V24H37zM40,23H41V24H40zM42,23H43V24H42zM43,23H44V24H43zM4,24H5V25H4zM6,24H7V25H6zM7,24H8V25H7zM10,24H11V25H10zM12,24H13V25H12zM13,24H14V25H13zM14,24H15V25H14zM15,24H16V25H15zM18,24H19V25H18zM19,24H20V25H19zM21,24H22V25H21zM22,24H23V25H22zM25,24H26V25H25zM29,24H30V25H29zM32,24H33V25H32zM34,24H35V25H34zM38,24H39V25H38zM39,24H40V25H39zM42,24H43V25H42zM44,24H45V25H44zM4,25H5V26H4zM6,25H7V26H6zM8,25H9V26H8zM9,25H10V26H9zM12,25H13V26H12zM13,25H14V26H13zM14,25H15V26H14zM15,25H16V26H15zM17,25H18V26H17zM20,25H21V26H20zM21,25H22V26H21zM24,25H25V26H24zM26,25H27V26H26zM27,25H28V26H27zM28,25H29V26H28zM29,25H30V26H29zM30,25H31V26H30zM31,25H32V26H31zM33,25H34V26H33zM34,25H35V26H34zM35,25H36V26H35zM39,25H40V26H39zM40,25H41V26H40zM41,25H42V26H41zM4,26H5V27H4zM6,26H7V27H6zM7,26H8V27H7zM9,26H10V27H9zM10,26H11V27H10zM12,26H13V27H12zM14,26H15V27H14zM16,26H17V27H16zM19,26H20V27H19zM20,26H21V27H20zM21,26H22V27H21zM22,26H23V27H22zM24,26H25V27H24zM26,26H27V27H26zM31,26H32V27H31zM32,26H33V27H32zM36,26H37V27H36zM37,26H38V27H37zM40,26H41V27H40zM41,26H42V27H41zM4,27H5V28H4zM5,27H6V28H5zM6,27H7V28H6zM7,27H8V28H7zM9,27H10V28H9zM12,27H13V28H12zM13,27H14V28H13zM17,27H18V28H17zM18,27H19V28H18zM21,27H22V28H21zM22,27H23V28H22zM24,27H25V28H24zM25,27H26V28H25zM26,27H27V28H26zM28,27H29V28H28zM29,27H30V28H29zM30,27H31V28H30zM33,27H34V28H33zM35,27H36V28H35zM37,27H38V28H37zM38,27H39V28H38zM39,27H40V28H39zM40,27H41V28H40zM41,27H42V28H41zM4,28H5V29H4zM5,28H6V29H5zM7,28H8V29H7zM10,28H11V29H10zM11,28H12V29H11zM12,28H13V29H12zM14,28H15V29H14zM15,28H16V29H15zM17,28H18V29H17zM20,28H21V29H20zM21,28H22V29H21zM22,28H23V29H22zM24,28H25V29H24zM25,28H26V29H25zM30,28H31V29H30zM32,28H33V29H32zM35,28H36V29H35zM36,28H37V29H36zM37,28H38V29H37zM38,28H39V29H38zM39,28H40V29H39zM41,28H42V29H41zM44,28H45V29H44zM7,29H8V30H7zM9,29H10V30H9zM11,29H12V30H11zM14,29H15V30H14zM17,29H18V30H17zM19,29H20V30H19zM21,29H22V30H21zM22,29H23V30H22zM23,29H24V30H23zM24,29H25V30H24zM25,29H26V30H25zM26,29H27V30H26zM28,29H29V30H28zM31,29H32V30H31zM32,29H33V30H32zM36,29H37V30H36zM38,29H39V30H38zM39,29H40V30H39zM40,29H41V30H40zM42,29H43V30H42zM43,29H44V30H43zM44,29H45V30H44zM6,30H7V31H6zM7,30H8V31H7zM8,30H9V31H8zM9,30H10V31H9zM10,30H11V31H10zM13,30H14V31H13zM14,30H15V31H14zM16,30H17V31H16zM17,30H18V31H17zM19,30H20V31H19zM21,30H22V31H21zM23,30H24V31H23zM24,30H25V31H24zM27,30H28V31H27zM28,30H29V31H28zM29,30H30V31H29zM30,30H31V31H30zM31,30H32V31H31zM32,30H33V31H32zM34,30H35V31H34zM35,30H36V31H35zM36,30H37V31H36zM38,30H39V31H38zM39,30H40V31H39zM40,30H41V31H40zM41,30H42V31H41zM44,30H45V31H44zM4,31H5V32H4zM5,31H6V32H5zM6,31H7V32H6zM8,31H9V32H8zM11,31H12V32H11zM14,31H15V32H14zM19,31H20V32H19zM20,31H21V32H20zM21,31H22V32H21zM32,31H33V32H32zM35,31H36V32H35zM38,31H39V32H38zM40,31H41V32H40zM41,31H42V32H41zM42,31H43V32H42zM44,31H45V32H44zM5,32H6V33H5zM6,32H7V33H6zM9,32H10V33H9zM10,32H11V33H10zM12,32H13V33H12zM15,32H16V33H15zM16,32H17V33H16zM18,32H19V33H18zM21,32H22V33H21zM23,32H24V33H23zM24,32H25V33H24zM25,32H26V33H25zM29,32H30V33H29zM31,32H32V33H31zM32,32H33V33H32zM34,32H35V33H34zM35,32H36V33H35zM39,32H40V33H39zM41,32H42V33H41zM43,32H44V33H43zM4,33H5V34H4zM6,33H7V34H6zM9,33H10V34H9zM11,33H12V34H11zM12,33H13V34H12zM13,33H14V34H13zM19,33H20V34H19zM20,33H21V34H20zM21,33H22V34H21zM27,33H28V34H27zM29,33H30V34H29zM30,33H31V34H30zM32,33H33V34H32zM34,33H35V34H34zM35,33H36V34H35zM36,33H37V34H36zM40,33H41V34H40zM41,33H42V34H41zM42,33H43V34H42zM4,34H5V35H4zM5,34H6V35H5zM6,34H7V35H6zM10,34H11V35H10zM11,34H12V35H11zM12,34H13V35H12zM14,34H15V35H14zM15,34H16V35H15zM18,34H19V35H18zM20,34H21V35H20zM21,34H22V35H21zM22,34H23V35H22zM27,34H28V35H27zM28,34H29V35H28zM30,34H31V35H30zM31,34H32V35H31zM35,34H36V35H35zM37,34H38V35H37zM40,34H41V35H40zM41,34H42V35H41zM44,34H45V35H44zM4,35H5V36H4zM5,35H6V36H5zM6,35H7V36H6zM9,35H10V36H9zM12,35H13V36H12zM14,35H15V36H14zM15,35H16V36H15zM16,35H17V36H16zM18,35H19V36H18zM20,35H21V36H20zM21,35H22V36H21zM23,35H24V36H23zM24,35H25V36H24zM26,35H27V36H26zM27,35H28V36H27zM28,35H29V36H28zM29,35H30V36H29zM30,35H31V36H30zM35,35H36V36H35zM36,35H37V36H36zM38,35H39V36H38zM40,35H41V36H40zM42,35H43V36H42zM44,35H45V36H44zM4,36H5V37H4zM5,36H6V37H5zM7,36H8V37H7zM9,36H10V37H9zM10,36H11V37H10zM12,36H13V37H12zM13,36H14V37H13zM14,36H15V37H14zM16,36H17V37H16zM17,36H18V37H17zM18,36H19V37H18zM21,36H22V37H21zM26,36H27V37H26zM28,36H29V37H28zM29,36H30V37H29zM30,36H31V37H30zM31,36H32V37H31zM32,36H33V37H32zM33,36H34V37H33zM35,36H36V37H35zM36,36H37V37H36zM37,36H38V37H37zM38,36H39V37H38zM39,36H40V37H39zM40,36H41V37H40zM41,36H42V37H41zM42,36H43V37H42zM43,36H44V37H43zM44,36H45V37H44zM12,37H13V38H12zM13,37H14V38H13zM14,37H15V38H14zM15,37H16V38H15zM16,37H17V38H16zM18,37H19V38H18zM20,37H21V38H20zM22,37H23V38H22zM27,37H28V38H27zM28,37H29V38H28zM29,37H30V38H29zM31,37H32V38H31zM32,37H33V38H32zM33,37H34V38H33zM34,37H35V38H34zM36,37H37V38H36zM40,37H41V38H40zM42,37H43V38H42zM4,38H5V39H4zM5,38H6V39H5zM6,38H7V39H6zM7,38H8V39H7zM8,38H9V39H8zM9,38H10V39H9zM10,38H11V39H10zM12,38H13V39H12zM13,38H14V39H13zM14,38H15V39H14zM19,38H20V39H19zM20,38H21V39H20zM21,38H22V39H21zM25,38H26V39H25zM26,38H27V39H26zM27,38H28V39H27zM31,38H32V39H31zM32,38H33V39H32zM35,38H36V39H35zM36,38H37V39H36zM38,38H39V39H38zM40,38H41V39H40zM4,39H5V40H4zM10,39H11V40H10zM13,39H14V40H13zM19,39H20V40H19zM21,39H22V40H21zM25,39H26V40H25zM26,39H27V40H26zM29,39H30V40H29zM30,39H31V40H30zM31,39H32V40H31zM32,39H33V40H32zM34,39H35V40H34zM35,39H36V40H35zM36,39H37V40H36zM40,39H41V40H40zM41,39H42V40H41zM44,39H45V40H44zM4,40H5V41H4zM6,40H7V41H6zM7,40H8V41H7zM8,40H9V41H8zM10,40H11V41H10zM12,40H13V41H12zM14,40H15V41H14zM16,40H17V41H16zM21,40H22V41H21zM25,40H26V41H25zM28,40H29V41H28zM29,40H30V41H29zM32,40H33V41H32zM33,40H34V41H33zM35,40H36V41H35zM36,40H37V41H36zM37,40H38V41H37zM38,40H39V41H38zM39,40H40V41H39zM40,40H41V41H40zM41,40H42V41H41zM44,40H45V41H44zM4,41H5V42H4zM6,41H7V42H6zM7,41H8V42H7zM8,41H9V42H8zM10,41H11V42H10zM12,41H13V42H12zM14,41H15V42H14zM15,41H16V42H15zM18,41H19V42H18zM21,41H22V42H21zM23,41H24V42H23zM26,41H27V42H26zM29,41H30V42H29zM30,41H31V42H30zM31,41H32V42H31zM32,41H33V42H32zM34,41H35V42H34zM35,41H36V42H35zM39,41H40V42H39zM41,41H42V42H41zM42,41H43V42H42zM43,41H44V42H43zM44,41H45V42H44zM4,42H5V43H4zM6,42H7V43H6zM7,42H8V43H7zM8,42H9V43H8zM10,42H11V43H10zM13,42H14V43H13zM17,42H18V43H17zM18,42H19V43H18zM22,42H23V43H22zM25,42H26V43H25zM27,42H28V43H27zM30,42H31V43H30zM31,42H32V43H31zM32,42H33V43H32zM33,42H34V43H33zM34,42H35V43H34zM36,42H37V43H36zM37,42H38V43H37zM39,42H40V43H39zM40,42H41V43H40zM42,42H43V43H42zM43,42H44V43H43zM44,42H45V43H44zM4,43H5V44H4zM10,43H11V44H10zM13,43H14V44H13zM14,43H15V44H14zM17,43H18V44H17zM19,43H20V44H19zM22,43H23V44H22zM23,43H24V44H23zM25,43H26V44H25zM26,43H27V44H26zM27,43H28V44H27zM28,43H29V44H28zM29,43H30V44H29zM31,43H32V44H31zM35,43H36V44H35zM38,43H39V44H38zM40,43H41V44H40zM41,43H42V44H41zM42,43H43V44H42zM44,43H45V44H44zM4,44H5V45H4zM5,44H6V45H5zM6,44H7V45H6zM7,44H8V45H7zM8,44H9V45H8zM9,44H10V45H9zM10,44H11V45H10zM15,44H16V45H15zM16,44H17V45H16zM18,44H19V45H18zM21,44H22V45H21zM25,44H26V45H25zM27,44H28V45H27zM29,44H30V45H29zM30,44H31V45H30zM32,44H33V45H32zM35,44H36V45H35zM36,44H37V45H36zM40,44H41V45H40z" id="qr-path" fill="#000000" fill-opacity="1" fill-rule="nonzero" stroke="none" /></svg>