<?xml version="1.0" encoding="utf-8" ?>
<svg baseProfile="tiny" height="100mm" version="1.2" width="100mm" xmlns="http://www.w3.org/2000/svg" xmlns:ev="http://www.w3.org/2001/xml-events" xmlns:xlink="http://www.w3.org/1999/xlink"><defs /><circle cx="50" cy="50" fill="none" r="45" stroke="red" stroke-width="0.5" /><g fill="black" id="qr_code"><g transform="translate(20.0,20.0)"><rect height="2.069" width="2.069" x="0.0" y="0.0" /><rect height="2.069" width="2.069" x="2.069" y="0.0" /><rect height="2.069" width="2.069" x="4.1379" y="0.0" /><rect height="2.069" width="2.069" x="6.2069" y="0.0" /><rect height="2.069" width="2.069" x="8.2759" y="0.0" /><rect height="2.069" width="2.069" x="10.3448" y="0.0" /><rect height="2.069" width="2.069" x="12.4138" y="0.0" /><rect height="2.069" width="2.069" x="18.6207" y="0.0" /><rect height="2.069" width="2.069" x="20.6897" y="0.0" /><rect height="2.069" width="2.069" x="22.7586" y="0.0" /><rect height="2.069" width="2.069" x="26.8966" y="0.0" /><rect height="2.069" width="2.069" x="33.1034" y="0.0" /><rect height="2.069" width="2.069" x="35.1724" y="0.0" /><rect height="2.069" width="2.069" x="37.2414" y="0.0" /><rect height="2.069" width="2.069" x="39.3103" y="0.0" /><rect height="2.069" width="2.069" x="41.3793" y="0.0" /><rect height="2.069" width="2.069" x="45.5172" y="0.0" /><rect height="2.069" width="2.069" x="47.5862" y="0.0" /><rect height="2.069" width="2.069" x="49.6552" y="0.0" /><rect height="2.069" width="2.069" x="51.7241" y="0.0" /><rect height="2.069" width="2.069" x="53.7931" y="0.0" /><rect height="2.069" width="2.069" x="55.8621" y="0.0" /><rect height="2.069" width="2.069" x="57.931" y="0.0" /><rect height="2.069" width="2.069" x="0.0" y="2.069" /><rect height="2.069" width="2.069" x="12.4138" y="2.069" /><rect height="2.069" width="2.069" x="22.7586" y="2.069" /><rect height="2.069" width="2.069" x="26.8966" y="2.069" /><rect height="2.069" width="2.069" x="28.9655" y="2.069" /><rect height="2.069" width="2.069" x="31.0345" y="2.069" /><rect height="2.069" width="2.069" x="37.2414" y="2.069" /><rect height="2.069" width="2.069" x="41.3793" y="2.069" /><rect height="2.069" width="2.069" x="45.5172" y="2.069" /><rect height="2.069" width="2.069" x="57.931" y="2.069" /><rect height="2.069" width="2.069" x="0.0" y="4.1379" /><rect height="2.069" width="2.069" x="4.1379" y="4.1379" /><rect height="2.069" width="2.069" x="6.2069" y="4.1379" /><rect height="2.069" width="2.069" x="8.2759" y="4.1379" /><rect height="2.069" width="2.069" x="12.4138" y="4.1379" /><rect height="2.069" width="2.069" x="18.6207" y="4.1379" /><rect height="2.069" width="2.069" x="26.8966" y="4.1379" /><rect height="2.069" width="2.069" x="33.1034" y="4.1379" /><rect height="2.069" width="2.069" x="35.1724" y="4.1379" /><rect height="2.069" width="2.069" x="37.2414" y="4.1379" /><rect height="2.069" width="2.069" x="45.5172" y="4.1379" /><rect height="2.069" width="2.069" x="49.6552" y="4.1379" /><rect height="2.069" width="2.069" x="51.7241" y="4.1379" /><rect height="2.069" width="2.069" x="53.7931" y="4.1379" /><rect height="2.069" width="2.069" x="57.931" y="4.1379" /><rect height="2.069" width="2.069" x="0.0" y="6.2069" /><rect height="2.069" width="2.069" x="4.1379" y="6.2069" /><rect height="2.069" width="2.069" x="6.2069" y="6.2069" /><rect height="2.069" width="2.069" x="8.2759" y="6.2069" /><rect height="2.069" width="2.069" x="12.4138" y="6.2069" /><rect height="2.069" width="2.069" x="20.6897" y="6.2069" /><rect height="2.069" width="2.069" x="26.8966" y="6.2069" /><rect height="2.069" width="2.069" x="28.9655" y="6.2069" /><rect height="2.069" width="2.069" x="31.0345" y="6.2069" /><rect height="2.069" width="2.069" x="37.2414" y="6.2069" /><rect height="2.069" width="2.069" x="39.3103" y="6.2069" /><rect height="2.069" width="2.069" x="45.5172" y="6.2069" /><rect height="2.069" width="2.069" x="49.6552" y="6.2069" /><rect height="2.069" width="2.069" x="51.7241" y="6.2069" /><rect height="2.069" width="2.069" x="53.7931" y="6.2069" /><rect height="2.069" width="2.069" x="57.931" y="6.2069" /><rect height="2.069" width="2.069" x="0.0" y="8.2759" /><rect height="2.069" width="2.069" x="4.1379" y="8.2759" /><rect height="2.069" width="2.069" x="6.2069" y="8.2759" /><rect height="2.069" width="2.069" x="8.2759" y="8.2759" /><rect height="2.069" width="2.069" x="12.4138" y="8.2759" /><rect height="2.069" width="2.069" x="20.6897" y="8.2759" /><rect height="2.069" width="2.069" x="26.8966" y="8.2759" /><rect height="2.069" width="2.069" x="28.9655" y="8.2759" /><rect height="2.069" width="2.069" x="33.1034" y="8.2759" /><rect height="2.069" width="2.069" x="35.1724" y="8.2759" /><rect height="2.069" width="2.069" x="37.2414" y="8.2759" /><rect height="2.069" width="2.069" x="45.5172" y="8.2759" /><rect height="2.069" width="2.069" x="49.6552" y="8.2759" /><rect height="2.069" width="2.069" x="51.7241" y="8.2759" /><rect height="2.069" width="2.069" x="53.7931" y="8.2759" /><rect height="2.069" width="2.069" x="57.931" y="8.2759" /><rect height="2.069" width="2.069" x="0.0" y="10.3448" /><rect height="2.069" width="2.069" x="12.4138" y="10.3448" /><rect height="2.069" width="2.069" x="16.5517" y="10.3448" /><rect height="2.069" width="2.069" x="26.8966" y="10.3448" /><rect height="2.069" width="2.069" x="28.9655" y="10.3448" /><rect height="2.069" width="2.069" x="35.1724" y="10.3448" /><rect height="2.069" width="2.069" x="37.2414" y="10.3448" /><rect height="2.069" width="2.069" x="39.3103" y="10.3448" /><rect height="2.069" width="2.069" x="45.5172" y="10.3448" /><rect height="2.069" width="2.069" x="57.931" y="10.3448" /><rect height="2.069" width="2.069" x="0.0" y="12.4138" /><rect height="2.069" width="2.069" x="2.069" y="12.4138" /><rect height="2.069" width="2.069" x="4.1379" y="12.4138" /><rect height="2.069" width="2.069" x="6.2069" y="12.4138" /><rect height="2.069" width="2.069" x="8.2759" y="12.4138" /><rect height="2.069" width="2.069" x="10.3448" y="12.4138" /><rect height="2.069" width="2.069" x="12.4138" y="12.4138" /><rect height="2.069" width="2.069" x="16.5517" y="12.4138" /><rect height="2.069" width="2.069" x="20.6897" y="12.4138" /><rect height="2.069" width="2.069" x="24.8276" y="12.4138" /><rect height="2.069" width="2.069" x="28.9655" y="12.4138" /><rect height="2.069" width="2.069" x="33.1034" y="12.4138" /><rect height="2.069" width="2.069" x="37.2414" y="12.4138" /><rect height="2.069" width="2.069" x="41.3793" y="12.4138" /><rect height="2.069" width="2.069" x="45.5172" y="12.4138" /><rect height="2.069" width="2.069" x="47.5862" y="12.4138" /><rect height="2.069" width="2.069" x="49.6552" y="12.4138" /><rect height="2.069" width="2.069" x="51.7241" y="12.4138" /><rect height="2.069" width="2.069" x="53.7931" y="12.4138" /><rect height="2.069" width="2.069" x="55.8621" y="12.4138" /><rect height="2.069" width="2.069" x="57.931" y="12.4138" /><rect height="2.069" width="2.069" x="20.6897" y="14.4828" /><rect height="2.069" width="2.069" x="24.8276" y="14.4828" /><rect height="2.069" width="2.069" x="28.9655" y="14.4828" /><rect height="2.069" width="2.069" x="35.1724" y="14.4828" /><rect height="2.069" width="2.069" x="0.0" y="16.5517" /><rect height="2.069" width="2.069" x="6.2069" y="16.5517" /><rect height="2.069" width="2.069" x="10.3448" y="16.5517" /><rect height="2.069" width="2.069" x="12.4138" y="16.5517" /><rect height="2.069" width="2.069" x="16.5517" y="16.5517" /><rect height="2.069" width="2.069" x="20.6897" y="16.5517" /><rect height="2.069" width="2.069" x="22.7586" y="16.5517" /><rect height="2.069" width="2.069" x="24.8276" y="16.5517" /><rect height="2.069" width="2.069" x="31.0345" y="16.5517" /><rect height="2.069" width="2.069" x="39.3103" y="16.5517" /><rect height="2.069" width="2.069" x="43.4483" y="16.5517" /><rect height="2.069" width="2.069" x="47.5862" y="16.5517" /><rect height="2.069" width="2.069" x="0.0" y="18.6207" /><rect height="2.069" width="2.069" x="2.069" y="18.6207" /><rect height="2.069" width="2.069" x="4.1379" y="18.6207" /><rect height="2.069" width="2.069" x="8.2759" y="18.6207" /><rect height="2.069" width="2.069" x="16.5517" y="18.6207" /><rect height="2.069" width="2.069" x="20.6897" y="18.6207" /><rect height="2.069" width="2.069" x="24.8276" y="18.6207" /><rect height="2.069" width="2.069" x="28.9655" y="18.6207" /><rect height="2.069" width="2.069" x="31.0345" y="18.6207" /><rect height="2.069" width="2.069" x="35.1724" y="18.6207" /><rect height="2.069" width="2.069" x="41.3793" y="18.6207" /><rect height="2.069" width="2.069" x="43.4483" y="18.6207" /><rect height="2.069" width="2.069" x="45.5172" y="18.6207" /><rect height="2.069" width="2.069" x="47.5862" y="18.6207" /><rect height="2.069" width="2.069" x="51.7241" y="18.6207" /><rect height="2.069" width="2.069" x="57.931" y="18.6207" /><rect height="2.069" width="2.069" x="0.0" y="20.6897" /><rect height="2.069" width="2.069" x="2.069" y="20.6897" /><rect height="2.069" width="2.069" x="4.1379" y="20.6897" /><rect height="2.069" width="2.069" x="6.2069" y="20.6897" /><rect height="2.069" width="2.069" x="8.2759" y="20.6897" /><rect height="2.069" width="2.069" x="10.3448" y="20.6897" /><rect height="2.069" width="2.069" x="12.4138" y="20.6897" /><rect height="2.069" width="2.069" x="14.4828" y="20.6897" /><rect height="2.069" width="2.069" x="16.5517" y="20.6897" /><rect height="2.069" width="2.069" x="18.6207" y="20.6897" /><rect height="2.069" width="2.069" x="20.6897" y="20.6897" /><rect height="2.069" width="2.069" x="33.1034" y="20.6897" /><rect height="2.069" width="2.069" x="35.1724" y="20.6897" /><rect height="2.069" width="2.069" x="39.3103" y="20.6897" /><rect height="2.069" width="2.069" x="43.4483" y="20.6897" /><rect height="2.069" width="2.069" x="45.5172" y="20.6897" /><rect height="2.069" width="2.069" x="47.5862" y="20.6897" /><rect height="2.069" width="2.069" x="49.6552" y="20.6897" /><rect height="2.069" width="2.069" x="51.7241" y="20.6897" /><rect height="2.069" width="2.069" x="53.7931" y="20.6897" /><rect height="2.069" width="2.069" x="55.8621" y="20.6897" /><rect height="2.069" width="2.069" x="2.069" y="22.7586" /><rect height="2.069" width="2.069" x="6.2069" y="22.7586" /><rect height="2.069" width="2.069" x="8.2759" y="22.7586" /><rect height="2.069" width="2.069" x="10.3448" y="22.7586" /><rect height="2.069" width="2.069" x="14.4828" y="22.7586" /><rect height="2.069" width="2.069" x="18.6207" y="22.7586" /><rect height="2.069" width="2.069" x="20.6897" y="22.7586" /><rect height="2.069" width="2.069" x="24.8276" y="22.7586" /><rect height="2.069" width="2.069" x="28.9655" y="22.7586" /><rect height="2.069" width="2.069" x="31.0345" y="22.7586" /><rect height="2.069" width="2.069" x="37.2414" y="22.7586" /><rect height="2.069" width="2.069" x="39.3103" y="22.7586" /><rect height="2.069" width="2.069" x="41.3793" y="22.7586" /><rect height="2.069" width="2.069" x="43.4483" y="22.7586" /><rect height="2.069" width="2.069" x="45.5172" y="22.7586" /><rect height="2.069" width="2.069" x="47.5862" y="22.7586" /><rect height="2.069" width="2.069" x="53.7931" y="22.7586" /><rect height="2.069" width="2.069" x="55.8621" y="22.7586" /><rect height="2.069" width="2.069" x="0.0" y="24.8276" /><rect height="2.069" width="2.069" x="2.069" y="24.8276" /><rect height="2.069" width="2.069" x="4.1379" y="24.8276" /><rect height="2.069" width="2.069" x="6.2069" y="24.8276" /><rect height="2.069" width="2.069" x="12.4138" y="24.8276" /><rect height="2.069" width="2.069" x="14.4828" y="24.8276" /><rect height="2.069" width="2.069" x="16.5517" y="24.8276" /><rect height="2.069" width="2.069" x="24.8276" y="24.8276" /><rect height="2.069" width="2.069" x="33.1034" y="24.8276" /><rect height="2.069" width="2.069" x="35.1724" y="24.8276" /><rect height="2.069" width="2.069" x="41.3793" y="24.8276" /><rect height="2.069" width="2.069" x="43.4483" y="24.8276" /><rect height="2.069" width="2.069" x="45.5172" y="24.8276" /><rect height="2.069" width="2.069" x="47.5862" y="24.8276" /><rect height="2.069" width="2.069" x="51.7241" y="24.8276" /><rect height="2.069" width="2.069" x="55.8621" y="24.8276" /><rect height="2.069" width="2.069" x="57.931" y="24.8276" /><rect height="2.069" width="2.069" x="0.0" y="26.8966" /><rect height="2.069" width="2.069" x="2.069" y="26.8966" /><rect height="2.069" width="2.069" x="8.2759" y="26.8966" /><rect height="2.069" width="2.069" x="10.3448" y="26.8966" /><rect height="2.069" width="2.069" x="14.4828" y="26.8966" /><rect height="2.069" width="2.069" x="16.5517" y="26.8966" /><rect height="2.069" width="2.069" x="20.6897" y="26.8966" /><rect height="2.069" width="2.069" x="22.7586" y="26.8966" /><rect height="2.069" width="2.069" x="24.8276" y="26.8966" /><rect height="2.069" width="2.069" x="31.0345" y="26.8966" /><rect height="2.069" width="2.069" x="35.1724" y="26.8966" /><rect height="2.069" width="2.069" x="37.2414" y="26.8966" /><rect height="2.069" width="2.069" x="39.3103" y="26.8966" /><rect height="2.069" width="2.069" x="41.3793" y="26.8966" /><rect height="2.069" width="2.069" x="43.4483" y="26.8966" /><rect height="2.069" width="2.069" x="0.0" y="28.9655" /><rect height="2.069" width="2.069" x="2.069" y="28.9655" /><rect height="2.069" width="2.069" x="4.1379" y="28.9655" /><rect height="2.069" width="2.069" x="6.2069" y="28.9655" /><rect height="2.069" width="2.069" x="10.3448" y="28.9655" /><rect height="2.069" width="2.069" x="12.4138" y="28.9655" /><rect height="2.069" width="2.069" x="16.5517" y="28.9655" /><rect height="2.069" width="2.069" x="18.6207" y="28.9655" /><rect height="2.069" width="2.069" x="31.0345" y="28.9655" /><rect height="2.069" width="2.069" x="33.1034" y="28.9655" /><rect height="2.069" width="2.069" x="37.2414" y="28.9655" /><rect height="2.069" width="2.069" x="43.4483" y="28.9655" /><rect height="2.069" width="2.069" x="47.5862" y="28.9655" /><rect height="2.069" width="2.069" x="51.7241" y="28.9655" /><rect height="2.069" width="2.069" x="53.7931" y="28.9655" /><rect height="2.069" width="2.069" x="55.8621" y="28.9655" /><rect height="2.069" width="2.069" x="57.931" y="28.9655" /><rect height="2.069" width="2.069" x="2.069" y="31.0345" /><rect height="2.069" width="2.069" x="4.1379" y="31.0345" /><rect height="2.069" width="2.069" x="6.2069" y="31.0345" /><rect height="2.069" width="2.069" x="14.4828" y="31.0345" /><rect height="2.069" width="2.069" x="18.6207" y="31.0345" /><rect height="2.069" width="2.069" x="20.6897" y="31.0345" /><rect height="2.069" width="2.069" x="26.8966" y="31.0345" /><rect height="2.069" width="2.069" x="28.9655" y="31.0345" /><rect height="2.069" width="2.069" x="33.1034" y="31.0345" /><rect height="2.069" width="2.069" x="35.1724" y="31.0345" /><rect height="2.069" width="2.069" x="49.6552" y="31.0345" /><rect height="2.069" width="2.069" x="51.7241" y="31.0345" /><rect height="2.069" width="2.069" x="55.8621" y="31.0345" /><rect height="2.069" width="2.069" x="0.0" y="33.1034" /><rect height="2.069" width="2.069" x="2.069" y="33.1034" /><rect height="2.069" width="2.069" x="4.1379" y="33.1034" /><rect height="2.069" width="2.069" x="6.2069" y="33.1034" /><rect height="2.069" width="2.069" x="8.2759" y="33.1034" /><rect height="2.069" width="2.069" x="12.4138" y="33.1034" /><rect height="2.069" width="2.069" x="14.4828" y="33.1034" /><rect height="2.069" width="2.069" x="16.5517" y="33.1034" /><rect height="2.069" width="2.069" x="22.7586" y="33.1034" /><rect height="2.069" width="2.069" x="26.8966" y="33.1034" /><rect height="2.069" width="2.069" x="28.9655" y="33.1034" /><rect height="2.069" width="2.069" x="31.0345" y="33.1034" /><rect height="2.069" width="2.069" x="35.1724" y="33.1034" /><rect height="2.069" width="2.069" x="39.3103" y="33.1034" /><rect height="2.069" width="2.069" x="43.4483" y="33.1034" /><rect height="2.069" width="2.069" x="55.8621" y="33.1034" /><rect height="2.069" width="2.069" x="6.2069" y="35.1724" /><rect height="2.069" width="2.069" x="20.6897" y="35.1724" /><rect height="2.069" width="2.069" x="24.8276" y="35.1724" /><rect height="2.069" width="2.069" x="31.0345" y="35.1724" /><rect height="2.069" width="2.069" x="35.1724" y="35.1724" /><rect height="2.069" width="2.069" x="43.4483" y="35.1724" /><rect height="2.069" width="2.069" x="45.5172" y="35.1724" /><rect height="2.069" width="2.069" x="47.5862" y="35.1724" /><rect height="2.069" width="2.069" x="51.7241" y="35.1724" /><rect height="2.069" width="2.069" x="57.931" y="35.1724" /><rect height="2.069" width="2.069" x="0.0" y="37.2414" /><rect height="2.069" width="2.069" x="6.2069" y="37.2414" /><rect height="2.069" width="2.069" x="8.2759" y="37.2414" /><rect height="2.069" width="2.069" x="10.3448" y="37.2414" /><rect height="2.069" width="2.069" x="12.4138" y="37.2414" /><rect height="2.069" width="2.069" x="16.5517" y="37.2414" /><rect height="2.069" width="2.069" x="20.6897" y="37.2414" /><rect height="2.069" width="2.069" x="24.8276" y="37.2414" /><rect height="2.069" width="2.069" x="26.8966" y="37.2414" /><rect height="2.069" width="2.069" x="33.1034" y="37.2414" /><rect height="2.069" width="2.069" x="35.1724" y="37.2414" /><rect height="2.069" width="2.069" x="41.3793" y="37.2414" /><rect height="2.069" width="2.069" x="47.5862" y="37.2414" /><rect height="2.069" width="2.069" x="49.6552" y="37.2414" /><rect height="2.069" width="2.069" x="55.8621" y="37.2414" /><rect height="2.069" width="2.069" x="57.931" y="37.2414" /><rect height="2.069" width="2.069" x="10.3448" y="39.3103" /><rect height="2.069" width="2.069" x="18.6207" y="39.3103" /><rect height="2.069" width="2.069" x="22.7586" y="39.3103" /><rect height="2.069" width="2.069" x="24.8276" y="39.3103" /><rect height="2.069" width="2.069" x="26.8966" y="39.3103" /><rect height="2.069" width="2.069" x="31.0345" y="39.3103" /><rect height="2.069" width="2.069" x="33.1034" y="39.3103" /><rect height="2.069" width="2.069" x="35.1724" y="39.3103" /><rect height="2.069" width="2.069" x="37.2414" y="39.3103" /><rect height="2.069" width="2.069" x="45.5172" y="39.3103" /><rect height="2.069" width="2.069" x="55.8621" y="39.3103" /><rect height="2.069" width="2.069" x="57.931" y="39.3103" /><rect height="2.069" width="2.069" x="0.0" y="41.3793" /><rect height="2.069" width="2.069" x="4.1379" y="41.3793" /><rect height="2.069" width="2.069" x="12.4138" y="41.3793" /><rect height="2.069" width="2.069" x="18.6207" y="41.3793" /><rect height="2.069" width="2.069" x="20.6897" y="41.3793" /><rect height="2.069" width="2.069" x="22.7586" y="41.3793" /><rect height="2.069" width="2.069" x="24.8276" y="41.3793" /><rect height="2.069" width="2.069" x="28.9655" y="41.3793" /><rect height="2.069" width="2.069" x="41.3793" y="41.3793" /><rect height="2.069" width="2.069" x="43.4483" y="41.3793" /><rect height="2.069" width="2.069" x="45.5172" y="41.3793" /><rect height="2.069" width="2.069" x="47.5862" y="41.3793" /><rect height="2.069" width="2.069" x="49.6552" y="41.3793" /><rect height="2.069" width="2.069" x="53.7931" y="41.3793" /><rect height="2.069" width="2.069" x="16.5517" y="43.4483" /><rect height="2.069" width="2.069" x="18.6207" y="43.4483" /><rect height="2.069" width="2.069" x="20.6897" y="43.4483" /><rect height="2.069" width="2.069" x="26.8966" y="43.4483" /><rect height="2.069" width="2.069" x="33.1034" y="43.4483" /><rect height="2.069" width="2.069" x="41.3793" y="43.4483" /><rect height="2.069" width="2.069" x="49.6552" y="43.4483" /><rect height="2.069" width="2.069" x="53.7931" y="43.4483" /><rect height="2.069" width="2.069" x="55.8621" y="43.4483" /><rect height="2.069" width="2.069" x="57.931" y="43.4483" /><rect height="2.069" width="2.069" x="0.0" y="45.5172" /><rect height="2.069" width="2.069" x="2.069" y="45.5172" /><rect height="2.069" width="2.069" x="4.1379" y="45.5172" /><rect height="2.069" width="2.069" x="6.2069" y="45.5172" /><rect height="2.069" width="2.069" x="8.2759" y="45.5172" /><rect height="2.069" width="2.069" x="10.3448" y="45.5172" /><rect height="2.069" width="2.069" x="12.4138" y="45.5172" /><rect height="2.069" width="2.069" x="18.6207" y="45.5172" /><rect height="2.069" width="2.069" x="22.7586" y="45.5172" /><rect height="2.069" width="2.069" x="24.8276" y="45.5172" /><rect height="2.069" width="2.069" x="26.8966" y="45.5172" /><rect height="2.069" width="2.069" x="28.9655" y="45.5172" /><rect height="2.069" width="2.069" x="35.1724" y="45.5172" /><rect height="2.069" width="2.069" x="37.2414" y="45.5172" /><rect height="2.069" width="2.069" x="41.3793" y="45.5172" /><rect height="2.069" width="2.069" x="45.5172" y="45.5172" /><rect height="2.069" width="2.069" x="49.6552" y="45.5172" /><rect height="2.069" width="2.069" x="55.8621" y="45.5172" /><rect height="2.069" width="2.069" x="0.0" y="47.5862" /><rect height="2.069" width="2.069" x="12.4138" y="47.5862" /><rect height="2.069" width="2.069" x="16.5517" y="47.5862" /><rect height="2.069" width="2.069" x="18.6207" y="47.5862" /><rect height="2.069" width="2.069" x="26.8966" y="47.5862" /><rect height="2.069" width="2.069" x="31.0345" y="47.5862" /><rect height="2.069" width="2.069" x="37.2414" y="47.5862" /><rect height="2.069" width="2.069" x="41.3793" y="47.5862" /><rect height="2.069" width="2.069" x="49.6552" y="47.5862" /><rect height="2.069" width="2.069" x="51.7241" y="47.5862" /><rect height="2.069" width="2.069" x="53.7931" y="47.5862" /><rect height="2.069" width="2.069" x="55.8621" y="47.5862" /><rect height="2.069" width="2.069" x="0.0" y="49.6552" /><rect height="2.069" width="2.069" x="4.1379" y="49.6552" /><rect height="2.069" width="2.069" x="6.2069" y="49.6552" /><rect height="2.069" width="2.069" x="8.2759" y="49.6552" /><rect height="2.069" width="2.069" x="12.4138" y="49.6552" /><rect height="2.069" width="2.069" x="18.6207" y="49.6552" /><rect height="2.069" width="2.069" x="22.7586" y="49.6552" /><rect height="2.069" width="2.069" x="28.9655" y="49.6552" /><rect height="2.069" width="2.069" x="35.1724" y="49.6552" /><rect height="2.069" width="2.069" x="37.2414" y="49.6552" /><rect height="2.069" width="2.069" x="41.3793" y="49.6552" /><rect height="2.069" width="2.069" x="43.4483" y="49.6552" /><rect height="2.069" width="2.069" x="45.5172" y="49.6552" /><rect height="2.069" width="2.069" x="47.5862" y="49.6552" /><rect height="2.069" width="2.069" x="49.6552" y="49.6552" /><rect height="2.069" width="2.069" x="57.931" y="49.6552" /><rect height="2.069" width="2.069" x="0.0" y="51.7241" /><rect height="2.069" width="2.069" x="4.1379" y="51.7241" /><rect height="2.069" width="2.069" x="6.2069" y="51.7241" /><rect height="2.069" width="2.069" x="8.2759" y="51.7241" /><rect height="2.069" width="2.069" x="12.4138" y="51.7241" /><rect height="2.069" width="2.069" x="16.5517" y="51.7241" /><rect height="2.069" width="2.069" x="18.6207" y="51.7241" /><rect height="2.069" width="2.069" x="20.6897" y="51.7241" /><rect height="2.069" width="2.069" x="22.7586" y="51.7241" /><rect height="2.069" width="2.069" x="24.8276" y="51.7241" /><rect height="2.069" width="2.069" x="28.9655" y="51.7241" /><rect height="2.069" width="2.069" x="39.3103" y="51.7241" /><rect height="2.069" width="2.069" x="45.5172" y="51.7241" /><rect height="2.069" width="2.069" x="47.5862" y="51.7241" /><rect height="2.069" width="2.069" x="49.6552" y="51.7241" /><rect height="2.069" width="2.069" x="51.7241" y="51.7241" /><rect height="2.069" width="2.069" x="53.7931" y="51.7241" /><rect height="2.069" width="2.069" x="55.8621" y="51.7241" /><rect height="2.069" width="2.069" x="0.0" y="53.7931" /><rect height="2.069" width="2.069" x="4.1379" y="53.7931" /><rect height="2.069" width="2.069" x="6.2069" y="53.7931" /><rect height="2.069" width="2.069" x="8.2759" y="53.7931" /><rect height="2.069" width="2.069" x="12.4138" y="53.7931" /><rect height="2.069" width="2.069" x="22.7586" y="53.7931" /><rect height="2.069" width="2.069" x="24.8276" y="53.7931" /><rect height="2.069" width="2.069" x="26.8966" y="53.7931" /><rect height="2.069" width="2.069" x="43.4483" y="53.7931" /><rect height="2.069" width="2.069" x="49.6552" y="53.7931" /><rect height="2.069" width="2.069" x="51.7241" y="53.7931" /><rect height="2.069" width="2.069" x="53.7931" y="53.7931" /><rect height="2.069" width="2.069" x="57.931" y="53.7931" /><rect height="2.069" width="2.069" x="0.0" y="55.8621" /><rect height="2.069" width="2.069" x="12.4138" y="55.8621" /><rect height="2.069" width="2.069" x="18.6207" y="55.8621" /><rect height="2.069" width="2.069" x="20.6897" y="55.8621" /><rect height="2.069" width="2.069" x="31.0345" y="55.8621" /><rect height="2.069" width="2.069" x="35.1724" y="55.8621" /><rect height="2.069" width="2.069" x="39.3103" y="55.8621" /><rect height="2.069" width="2.069" x="41.3793" y="55.8621" /><rect height="2.069" width="2.069" x="43.4483" y="55.8621" /><rect height="2.069" width="2.069" x="55.8621" y="55.8621" /><rect height="2.069" width="2.069" x="0.0" y="57.931" /><rect height="2.069" width="2.069" x="2.069" y="57.931" /><rect height="2.069" width="2.069" x="4.1379" y="57.931" /><rect height="2.069" width="2.069" x="6.2069" y="57.931" /><rect height="2.069" width="2.069" x="8.2759" y="57.931" /><rect height="2.069" width="2.069" x="10.3448" y="57.931" /><rect height="2.069" width="2.069" x="12.4138" y="57.931" /><rect height="2.069" width="2.069" x="16.5517" y="57.931" /><rect height="2.069" width="2.069" x="18.6207" y="57.931" /><rect height="2.069" width="2.069" x="24.8276" y="57.931" /><rect height="2.069" width="2.069" x="26.8966" y="57.931" /><rect height="2.069" width="2.069" x="35.1724" y="57.931" /><rect height="2.069" width="2.069" x="41.3793" y="57.931" /><rect height="2.069" width="2.069" x="45.5172" y="57.931" /><rect height="2.069" width="2.069" x="47.5862" y="57.931" /><rect height="2.069" width="2.069" x="51.7241" y="57.931" /><rect height="2.069" width="2.069" x="55.8621" y="57.931" /></g></g></svg>