<?xml version="1.0" encoding="utf-8" ?>
<svg baseProfile="full" height="100mm" version="1.1" width="100mm" xmlns="http://www.w3.org/2000/svg" xmlns:ev="http://www.w3.org/2001/xml-events" xmlns:xlink="http://www.w3.org/1999/xlink"><defs /><g fill="#000000" id="qr_code"><g transform="translate(10.0,10.0)"><rect height="2.7586206896551726" width="2.7586206896551726" x="0.0" y="0.0" /><rect height="2.7586206896551726" width="2.7586206896551726" x="2.7586206896551726" y="0.0" /><rect height="2.7586206896551726" width="2.7586206896551726" x="5.517241379310345" y="0.0" /><rect height="2.7586206896551726" width="2.7586206896551726" x="8.275862068965518" y="0.0" /><rect height="2.7586206896551726" width="2.7586206896551726" x="11.03448275862069" y="0.0" /><rect height="2.7586206896551726" width="2.7586206896551726" x="13.793103448275863" y="0.0" /><rect height="2.7586206896551726" width="2.7586206896551726" x="16.551724137931036" y="0.0" /><rect height="2.7586206896551726" width="2.7586206896551726" x="24.827586206896555" y="0.0" /><rect height="2.7586206896551726" width="2.7586206896551726" x="27.586206896551726" y="0.0" /><rect height="2.7586206896551726" width="2.7586206896551726" x="30.344827586206897" y="0.0" /><rect height="2.7586206896551726" width="2.7586206896551726" x="35.862068965517246" y="0.0" /><rect height="2.7586206896551726" width="2.7586206896551726" x="44.13793103448276" y="0.0" /><rect height="2.7586206896551726" width="2.7586206896551726" x="46.896551724137936" y="0.0" /><rect height="2.7586206896551726" width="2.7586206896551726" x="49.65517241379311" y="0.0" /><rect height="2.7586206896551726" width="2.7586206896551726" x="52.41379310344828" y="0.0" /><rect height="2.7586206896551726" width="2.7586206896551726" x="55.17241379310345" y="0.0" /><rect height="2.7586206896551726" width="2.7586206896551726" x="60.689655172413794" y="0.0" /><rect height="2.7586206896551726" width="2.7586206896551726" x="63.44827586206897" y="0.0" /><rect height="2.7586206896551726" width="2.7586206896551726" x="66.20689655172414" y="0.0" /><rect height="2.7586206896551726" width="2.7586206896551726" x="68.96551724137932" y="0.0" /><rect height="2.7586206896551726" width="2.7586206896551726" x="71.72413793103449" y="0.0" /><rect height="2.7586206896551726" width="2.7586206896551726" x="74.48275862068967" y="0.0" /><rect height="2.7586206896551726" width="2.7586206896551726" x="77.24137931034483" y="0.0" /><rect height="2.7586206896551726" width="2.7586206896551726" x="0.0" y="2.7586206896551726" /><rect height="2.7586206896551726" width="2.7586206896551726" x="16.551724137931036" y="2.7586206896551726" /><rect height="2.7586206896551726" width="2.7586206896551726" x="30.344827586206897" y="2.7586206896551726" /><rect height="2.7586206896551726" width="2.7586206896551726" x="35.862068965517246" y="2.7586206896551726" /><rect height="2.7586206896551726" width="2.7586206896551726" x="38.62068965517241" y="2.7586206896551726" /><rect height="2.7586206896551726" width="2.7586206896551726" x="41.37931034482759" y="2.7586206896551726" /><rect height="2.7586206896551726" width="2.7586206896551726" x="49.65517241379311" y="2.7586206896551726" /><rect height="2.7586206896551726" width="2.7586206896551726" x="55.17241379310345" y="2.7586206896551726" /><rect height="2.7586206896551726" width="2.7586206896551726" x="60.689655172413794" y="2.7586206896551726" /><rect height="2.7586206896551726" width="2.7586206896551726" x="77.24137931034483" y="2.7586206896551726" /><rect height="2.7586206896551726" width="2.7586206896551726" x="0.0" y="5.517241379310345" /><rect height="2.7586206896551726" width="2.7586206896551726" x="5.517241379310345" y="5.517241379310345" /><rect height="2.7586206896551726" width="2.7586206896551726" x="8.275862068965518" y="5.517241379310345" /><rect height="2.7586206896551726" width="2.7586206896551726" x="11.03448275862069" y="5.517241379310345" /><rect height="2.7586206896551726" width="2.7586206896551726" x="16.551724137931036" y="5.517241379310345" /><rect height="2.7586206896551726" width="2.7586206896551726" x="24.827586206896555" y="5.517241379310345" /><rect height="2.7586206896551726" width="2.7586206896551726" x="35.862068965517246" y="5.517241379310345" /><rect height="2.7586206896551726" width="2.7586206896551726" x="44.13793103448276" y="5.517241379310345" /><rect height="2.7586206896551726" width="2.7586206896551726" x="46.896551724137936" y="5.517241379310345" /><rect height="2.7586206896551726" width="2.7586206896551726" x="49.65517241379311" y="5.517241379310345" /><rect height="2.7586206896551726" width="2.7586206896551726" x="60.689655172413794" y="5.517241379310345" /><rect height="2.7586206896551726" width="2.7586206896551726" x="66.20689655172414" y="5.517241379310345" /><rect height="2.7586206896551726" width="2.7586206896551726" x="68.96551724137932" y="5.517241379310345" /><rect height="2.7586206896551726" width="2.7586206896551726" x="71.72413793103449" y="5.517241379310345" /><rect height="2.7586206896551726" width="2.7586206896551726" x="77.24137931034483" y="5.517241379310345" /><rect height="2.7586206896551726" width="2.7586206896551726" x="0.0" y="8.275862068965518" /><rect height="2.7586206896551726" width="2.7586206896551726" x="5.517241379310345" y="8.275862068965518" /><rect height="2.7586206896551726" width="2.7586206896551726" x="8.275862068965518" y="8.275862068965518" /><rect height="2.7586206896551726" width="2.7586206896551726" x="11.03448275862069" y="8.275862068965518" /><rect height="2.7586206896551726" width="2.7586206896551726" x="16.551724137931036" y="8.275862068965518" /><rect height="2.7586206896551726" width="2.7586206896551726" x="27.586206896551726" y="8.275862068965518" /><rect height="2.7586206896551726" width="2.7586206896551726" x="35.862068965517246" y="8.275862068965518" /><rect height="2.7586206896551726" width="2.7586206896551726" x="38.62068965517241" y="8.275862068965518" /><rect height="2.7586206896551726" width="2.7586206896551726" x="41.37931034482759" y="8.275862068965518" /><rect height="2.7586206896551726" width="2.7586206896551726" x="49.65517241379311" y="8.275862068965518" /><rect height="2.7586206896551726" width="2.7586206896551726" x="52.41379310344828" y="8.275862068965518" /><rect height="2.7586206896551726" width="2.7586206896551726" x="60.689655172413794" y="8.275862068965518" /><rect height="2.7586206896551726" width="2.7586206896551726" x="66.20689655172414" y="8.275862068965518" /><rect height="2.7586206896551726" width="2.7586206896551726" x="68.96551724137932" y="8.275862068965518" /><rect height="2.7586206896551726" width="2.7586206896551726" x="71.72413793103449" y="8.275862068965518" /><rect height="2.7586206896551726" width="2.7586206896551726" x="77.24137931034483" y="8.275862068965518" /><rect height="2.7586206896551726" width="2.7586206896551726" x="0.0" y="11.03448275862069" /><rect height="2.7586206896551726" width="2.7586206896551726" x="5.517241379310345" y="11.03448275862069" /><rect height="2.7586206896551726" width="2.7586206896551726" x="8.275862068965518" y="11.03448275862069" /><rect height="2.7586206896551726" width="2.7586206896551726" x="11.03448275862069" y="11.03448275862069" /><rect height="2.7586206896551726" width="2.7586206896551726" x="16.551724137931036" y="11.03448275862069" /><rect height="2.7586206896551726" width="2.7586206896551726" x="27.586206896551726" y="11.03448275862069" /><rect height="2.7586206896551726" width="2.7586206896551726" x="35.862068965517246" y="11.03448275862069" /><rect height="2.7586206896551726" width="2.7586206896551726" x="38.62068965517241" y="11.03448275862069" /><rect height="2.7586206896551726" width="2.7586206896551726" x="44.13793103448276" y="11.03448275862069" /><rect height="2.7586206896551726" width="2.7586206896551726" x="46.896551724137936" y="11.03448275862069" /><rect height="2.7586206896551726" width="2.7586206896551726" x="49.65517241379311" y="11.03448275862069" /><rect height="2.7586206896551726" width="2.7586206896551726" x="60.689655172413794" y="11.03448275862069" /><rect height="2.7586206896551726" width="2.7586206896551726" x="66.20689655172414" y="11.03448275862069" /><rect height="2.7586206896551726" width="2.7586206896551726" x="68.96551724137932" y="11.03448275862069" /><rect height="2.7586206896551726" width="2.7586206896551726" x="71.72413793103449" y="11.03448275862069" /><rect height="2.7586206896551726" width="2.7586206896551726" x="77.24137931034483" y="11.03448275862069" /><rect height="2.7586206896551726" width="2.7586206896551726" x="0.0" y="13.793103448275863" /><rect height="2.7586206896551726" width="2.7586206896551726" x="16.551724137931036" y="13.793103448275863" /><rect height="2.7586206896551726" width="2.7586206896551726" x="22.06896551724138" y="13.793103448275863" /><rect height="2.7586206896551726" width="2.7586206896551726" x="35.862068965517246" y="13.793103448275863" /><rect height="2.7586206896551726" width="2.7586206896551726" x="38.62068965517241" y="13.793103448275863" /><rect height="2.7586206896551726" width="2.7586206896551726" x="46.896551724137936" y="13.793103448275863" /><rect height="2.7586206896551726" width="2.7586206896551726" x="49.65517241379311" y="13.793103448275863" /><rect height="2.7586206896551726" width="2.7586206896551726" x="52.41379310344828" y="13.793103448275863" /><rect height="2.7586206896551726" width="2.7586206896551726" x="60.689655172413794" y="13.793103448275863" /><rect height="2.7586206896551726" width="2.7586206896551726" x="77.24137931034483" y="13.793103448275863" /><rect height="2.7586206896551726" width="2.7586206896551726" x="0.0" y="16.551724137931036" /><rect height="2.7586206896551726" width="2.7586206896551726" x="2.7586206896551726" y="16.551724137931036" /><rect height="2.7586206896551726" width="2.7586206896551726" x="5.517241379310345" y="16.551724137931036" /><rect height="2.7586206896551726" width="2.7586206896551726" x="8.275862068965518" y="16.551724137931036" /><rect height="2.7586206896551726" width="2.7586206896551726" x="11.03448275862069" y="16.551724137931036" /><rect height="2.7586206896551726" width="2.7586206896551726" x="13.793103448275863" y="16.551724137931036" /><rect height="2.7586206896551726" width="2.7586206896551726" x="16.551724137931036" y="16.551724137931036" /><rect height="2.7586206896551726" width="2.7586206896551726" x="22.06896551724138" y="16.551724137931036" /><rect height="2.7586206896551726" width="2.7586206896551726" x="27.586206896551726" y="16.551724137931036" /><rect height="2.7586206896551726" width="2.7586206896551726" x="33.10344827586207" y="16.551724137931036" /><rect height="2.7586206896551726" width="2.7586206896551726" x="38.62068965517241" y="16.551724137931036" /><rect height="2.7586206896551726" width="2.7586206896551726" x="44.13793103448276" y="16.551724137931036" /><rect height="2.7586206896551726" width="2.7586206896551726" x="49.65517241379311" y="16.551724137931036" /><rect height="2.7586206896551726" width="2.7586206896551726" x="55.17241379310345" y="16.551724137931036" /><rect height="2.7586206896551726" width="2.7586206896551726" x="60.689655172413794" y="16.551724137931036" /><rect height="2.7586206896551726" width="2.7586206896551726" x="63.44827586206897" y="16.551724137931036" /><rect height="2.7586206896551726" width="2.7586206896551726" x="66.20689655172414" y="16.551724137931036" /><rect height="2.7586206896551726" width="2.7586206896551726" x="68.96551724137932" y="16.551724137931036" /><rect height="2.7586206896551726" width="2.7586206896551726" x="71.72413793103449" y="16.551724137931036" /><rect height="2.7586206896551726" width="2.7586206896551726" x="74.48275862068967" y="16.551724137931036" /><rect height="2.7586206896551726" width="2.7586206896551726" x="77.24137931034483" y="16.551724137931036" /><rect height="2.7586206896551726" width="2.7586206896551726" x="27.586206896551726" y="19.310344827586206" /><rect height="2.7586206896551726" width="2.7586206896551726" x="33.10344827586207" y="19.310344827586206" /><rect height="2.7586206896551726" width="2.7586206896551726" x="38.62068965517241" y="19.310344827586206" /><rect height="2.7586206896551726" width="2.7586206896551726" x="46.896551724137936" y="19.310344827586206" /><rect height="2.7586206896551726" width="2.7586206896551726" x="0.0" y="22.06896551724138" /><rect height="2.7586206896551726" width="2.7586206896551726" x="8.275862068965518" y="22.06896551724138" /><rect height="2.7586206896551726" width="2.7586206896551726" x="13.793103448275863" y="22.06896551724138" /><rect height="2.7586206896551726" width="2.7586206896551726" x="16.551724137931036" y="22.06896551724138" /><rect height="2.7586206896551726" width="2.7586206896551726" x="22.06896551724138" y="22.06896551724138" /><rect height="2.7586206896551726" width="2.7586206896551726" x="27.586206896551726" y="22.06896551724138" /><rect height="2.7586206896551726" width="2.7586206896551726" x="30.344827586206897" y="22.06896551724138" /><rect height="2.7586206896551726" width="2.7586206896551726" x="33.10344827586207" y="22.06896551724138" /><rect height="2.7586206896551726" width="2.7586206896551726" x="41.37931034482759" y="22.06896551724138" /><rect height="2.7586206896551726" width="2.7586206896551726" x="52.41379310344828" y="22.06896551724138" /><rect height="2.7586206896551726" width="2.7586206896551726" x="57.931034482758626" y="22.06896551724138" /><rect height="2.7586206896551726" width="2.7586206896551726" x="63.44827586206897" y="22.06896551724138" /><rect height="2.7586206896551726" width="2.7586206896551726" x="0.0" y="24.827586206896555" /><rect height="2.7586206896551726" width="2.7586206896551726" x="2.7586206896551726" y="24.827586206896555" /><rect height="2.7586206896551726" width="2.7586206896551726" x="5.517241379310345" y="24.827586206896555" /><rect height="2.7586206896551726" width="2.7586206896551726" x="11.03448275862069" y="24.827586206896555" /><rect height="2.7586206896551726" width="2.7586206896551726" x="22.06896551724138" y="24.827586206896555" /><rect height="2.7586206896551726" width="2.7586206896551726" x="27.586206896551726" y="24.827586206896555" /><rect height="2.7586206896551726" width="2.7586206896551726" x="33.10344827586207" y="24.827586206896555" /><rect height="2.7586206896551726" width="2.7586206896551726" x="38.62068965517241" y="24.827586206896555" /><rect height="2.7586206896551726" width="2.7586206896551726" x="41.37931034482759" y="24.827586206896555" /><rect height="2.7586206896551726" width="2.7586206896551726" x="46.896551724137936" y="24.827586206896555" /><rect height="2.7586206896551726" width="2.7586206896551726" x="55.17241379310345" y="24.827586206896555" /><rect height="2.7586206896551726" width="2.7586206896551726" x="57.931034482758626" y="24.827586206896555" /><rect height="2.7586206896551726" width="2.7586206896551726" x="60.689655172413794" y="24.827586206896555" /><rect height="2.7586206896551726" width="2.7586206896551726" x="63.44827586206897" y="24.827586206896555" /><rect height="2.7586206896551726" width="2.7586206896551726" x="68.96551724137932" y="24.827586206896555" /><rect height="2.7586206896551726" width="2.7586206896551726" x="77.24137931034483" y="24.827586206896555" /><rect height="2.7586206896551726" width="2.7586206896551726" x="0.0" y="27.586206896551726" /><rect height="2.7586206896551726" width="2.7586206896551726" x="2.7586206896551726" y="27.586206896551726" /><rect height="2.7586206896551726" width="2.7586206896551726" x="5.517241379310345" y="27.586206896551726" /><rect height="2.7586206896551726" width="2.7586206896551726" x="8.275862068965518" y="27.586206896551726" /><rect height="2.7586206896551726" width="2.7586206896551726" x="11.03448275862069" y="27.586206896551726" /><rect height="2.7586206896551726" width="2.7586206896551726" x="13.793103448275863" y="27.586206896551726" /><rect height="2.7586206896551726" width="2.7586206896551726" x="16.551724137931036" y="27.586206896551726" /><rect height="2.7586206896551726" width="2.7586206896551726" x="19.310344827586206" y="27.586206896551726" /><rect height="2.7586206896551726" width="2.7586206896551726" x="22.06896551724138" y="27.586206896551726" /><rect height="2.7586206896551726" width="2.7586206896551726" x="24.827586206896555" y="27.586206896551726" /><rect height="2.7586206896551726" width="2.7586206896551726" x="27.586206896551726" y="27.586206896551726" /><rect height="2.7586206896551726" width="2.7586206896551726" x="44.13793103448276" y="27.586206896551726" /><rect height="2.7586206896551726" width="2.7586206896551726" x="46.896551724137936" y="27.586206896551726" /><rect height="2.7586206896551726" width="2.7586206896551726" x="52.41379310344828" y="27.586206896551726" /><rect height="2.7586206896551726" width="2.7586206896551726" x="57.931034482758626" y="27.586206896551726" /><rect height="2.7586206896551726" width="2.7586206896551726" x="60.689655172413794" y="27.586206896551726" /><rect height="2.7586206896551726" width="2.7586206896551726" x="63.44827586206897" y="27.586206896551726" /><rect height="2.7586206896551726" width="2.7586206896551726" x="66.20689655172414" y="27.586206896551726" /><rect height="2.7586206896551726" width="2.7586206896551726" x="68.96551724137932" y="27.586206896551726" /><rect height="2.7586206896551726" width="2.7586206896551726" x="71.72413793103449" y="27.586206896551726" /><rect height="2.7586206896551726" width="2.7586206896551726" x="74.48275862068967" y="27.586206896551726" /><rect height="2.7586206896551726" width="2.7586206896551726" x="2.7586206896551726" y="30.344827586206897" /><rect height="2.7586206896551726" width="2.7586206896551726" x="8.275862068965518" y="30.344827586206897" /><rect height="2.7586206896551726" width="2.7586206896551726" x="11.03448275862069" y="30.344827586206897" /><rect height="2.7586206896551726" width="2.7586206896551726" x="13.793103448275863" y="30.344827586206897" /><rect height="2.7586206896551726" width="2.7586206896551726" x="19.310344827586206" y="30.344827586206897" /><rect height="2.7586206896551726" width="2.7586206896551726" x="24.827586206896555" y="30.344827586206897" /><rect height="2.7586206896551726" width="2.7586206896551726" x="27.586206896551726" y="30.344827586206897" /><rect height="2.7586206896551726" width="2.7586206896551726" x="33.10344827586207" y="30.344827586206897" /><rect height="2.7586206896551726" width="2.7586206896551726" x="38.62068965517241" y="30.344827586206897" /><rect height="2.7586206896551726" width="2.7586206896551726" x="41.37931034482759" y="30.344827586206897" /><rect height="2.7586206896551726" width="2.7586206896551726" x="49.65517241379311" y="30.344827586206897" /><rect height="2.7586206896551726" width="2.7586206896551726" x="52.41379310344828" y="30.344827586206897" /><rect height="2.7586206896551726" width="2.7586206896551726" x="55.17241379310345" y="30.344827586206897" /><rect height="2.7586206896551726" width="2.7586206896551726" x="57.931034482758626" y="30.344827586206897" /><rect height="2.7586206896551726" width="2.7586206896551726" x="60.689655172413794" y="30.344827586206897" /><rect height="2.7586206896551726" width="2.7586206896551726" x="63.44827586206897" y="30.344827586206897" /><rect height="2.7586206896551726" width="2.7586206896551726" x="71.72413793103449" y="30.344827586206897" /><rect height="2.7586206896551726" width="2.7586206896551726" x="74.48275862068967" y="30.344827586206897" /><rect height="2.7586206896551726" width="2.7586206896551726" x="0.0" y="33.10344827586207" /><rect height="2.7586206896551726" width="2.7586206896551726" x="2.7586206896551726" y="33.10344827586207" /><rect height="2.7586206896551726" width="2.7586206896551726" x="5.517241379310345" y="33.10344827586207" /><rect height="2.7586206896551726" width="2.7586206896551726" x="8.275862068965518" y="33.10344827586207" /><rect height="2.7586206896551726" width="2.7586206896551726" x="16.551724137931036" y="33.10344827586207" /><rect height="2.7586206896551726" width="2.7586206896551726" x="19.310344827586206" y="33.10344827586207" /><rect height="2.7586206896551726" width="2.7586206896551726" x="22.06896551724138" y="33.10344827586207" /><rect height="2.7586206896551726" width="2.7586206896551726" x="33.10344827586207" y="33.10344827586207" /><rect height="2.7586206896551726" width="2.7586206896551726" x="44.13793103448276" y="33.10344827586207" /><rect height="2.7586206896551726" width="2.7586206896551726" x="46.896551724137936" y="33.10344827586207" /><rect height="2.7586206896551726" width="2.7586206896551726" x="55.17241379310345" y="33.10344827586207" /><rect height="2.7586206896551726" width="2.7586206896551726" x="57.931034482758626" y="33.10344827586207" /><rect height="2.7586206896551726" width="2.7586206896551726" x="60.689655172413794" y="33.10344827586207" /><rect height="2.7586206896551726" width="2.7586206896551726" x="63.44827586206897" y="33.10344827586207" /><rect height="2.7586206896551726" width="2.7586206896551726" x="68.96551724137932" y="33.10344827586207" /><rect height="2.7586206896551726" width="2.7586206896551726" x="74.48275862068967" y="33.10344827586207" /><rect height="2.7586206896551726" width="2.7586206896551726" x="77.24137931034483" y="33.10344827586207" /><rect height="2.7586206896551726" width="2.7586206896551726" x="0.0" y="35.862068965517246" /><rect height="2.7586206896551726" width="2.7586206896551726" x="2.7586206896551726" y="35.862068965517246" /><rect height="2.7586206896551726" width="2.7586206896551726" x="11.03448275862069" y="35.862068965517246" /><rect height="2.7586206896551726" width="2.7586206896551726" x="13.793103448275863" y="35.862068965517246" /><rect height="2.7586206896551726" width="2.7586206896551726" x="19.310344827586206" y="35.862068965517246" /><rect height="2.7586206896551726" width="2.7586206896551726" x="22.06896551724138" y="35.862068965517246" /><rect height="2.7586206896551726" width="2.7586206896551726" x="27.586206896551726" y="35.862068965517246" /><rect height="2.7586206896551726" width="2.7586206896551726" x="30.344827586206897" y="35.862068965517246" /><rect height="2.7586206896551726" width="2.7586206896551726" x="33.10344827586207" y="35.862068965517246" /><rect height="2.7586206896551726" width="2.7586206896551726" x="41.37931034482759" y="35.862068965517246" /><rect height="2.7586206896551726" width="2.7586206896551726" x="46.896551724137936" y="35.862068965517246" /><rect height="2.7586206896551726" width="2.7586206896551726" x="49.65517241379311" y="35.862068965517246" /><rect height="2.7586206896551726" width="2.7586206896551726" x="52.41379310344828" y="35.862068965517246" /><rect height="2.7586206896551726" width="2.7586206896551726" x="55.17241379310345" y="35.862068965517246" /><rect height="2.7586206896551726" width="2.7586206896551726" x="57.931034482758626" y="35.862068965517246" /><rect height="2.7586206896551726" width="2.7586206896551726" x="0.0" y="38.62068965517241" /><rect height="2.7586206896551726" width="2.7586206896551726" x="2.7586206896551726" y="38.62068965517241" /><rect height="2.7586206896551726" width="2.7586206896551726" x="5.517241379310345" y="38.62068965517241" /><rect height="2.7586206896551726" width="2.7586206896551726" x="8.275862068965518" y="38.62068965517241" /><rect height="2.7586206896551726" width="2.7586206896551726" x="13.793103448275863" y="38.62068965517241" /><rect height="2.7586206896551726" width="2.7586206896551726" x="16.551724137931036" y="38.62068965517241" /><rect height="2.7586206896551726" width="2.7586206896551726" x="22.06896551724138" y="38.62068965517241" /><rect height="2.7586206896551726" width="2.7586206896551726" x="24.827586206896555" y="38.62068965517241" /><rect height="2.7586206896551726" width="2.7586206896551726" x="41.37931034482759" y="38.62068965517241" /><rect height="2.7586206896551726" width="2.7586206896551726" x="44.13793103448276" y="38.62068965517241" /><rect height="2.7586206896551726" width="2.7586206896551726" x="49.65517241379311" y="38.62068965517241" /><rect height="2.7586206896551726" width="2.7586206896551726" x="57.931034482758626" y="38.62068965517241" /><rect height="2.7586206896551726" width="2.7586206896551726" x="63.44827586206897" y="38.62068965517241" /><rect height="2.7586206896551726" width="2.7586206896551726" x="68.96551724137932" y="38.62068965517241" /><rect height="2.7586206896551726" width="2.7586206896551726" x="71.72413793103449" y="38.62068965517241" /><rect height="2.7586206896551726" width="2.7586206896551726" x="74.48275862068967" y="38.62068965517241" /><rect height="2.7586206896551726" width="2.7586206896551726" x="77.24137931034483" y="38.62068965517241" /><rect height="2.7586206896551726" width="2.7586206896551726" x="2.7586206896551726" y="41.37931034482759" /><rect height="2.7586206896551726" width="2.7586206896551726" x="5.517241379310345" y="41.37931034482759" /><rect height="2.7586206896551726" width="2.7586206896551726" x="8.275862068965518" y="41.37931034482759" /><rect height="2.7586206896551726" width="2.7586206896551726" x="19.310344827586206" y="41.37931034482759" /><rect height="2.7586206896551726" width="2.7586206896551726" x="24.827586206896555" y="41.37931034482759" /><rect height="2.7586206896551726" width="2.7586206896551726" x="27.586206896551726" y="41.37931034482759" /><rect height="2.7586206896551726" width="2.7586206896551726" x="35.862068965517246" y="41.37931034482759" /><rect height="2.7586206896551726" width="2.7586206896551726" x="38.62068965517241" y="41.37931034482759" /><rect height="2.7586206896551726" width="2.7586206896551726" x="44.13793103448276" y="41.37931034482759" /><rect height="2.7586206896551726" width="2.7586206896551726" x="46.896551724137936" y="41.37931034482759" /><rect height="2.7586206896551726" width="2.7586206896551726" x="66.20689655172414" y="41.37931034482759" /><rect height="2.7586206896551726" width="2.7586206896551726" x="68.96551724137932" y="41.37931034482759" /><rect height="2.7586206896551726" width="2.7586206896551726" x="74.48275862068967" y="41.37931034482759" /><rect height="2.7586206896551726" width="2.7586206896551726" x="0.0" y="44.13793103448276" /><rect height="2.7586206896551726" width="2.7586206896551726" x="2.7586206896551726" y="44.13793103448276" /><rect height="2.7586206896551726" width="2.7586206896551726" x="5.517241379310345" y="44.13793103448276" /><rect height="2.7586206896551726" width="2.7586206896551726" x="8.275862068965518" y="44.13793103448276" /><rect height="2.7586206896551726" width="2.7586206896551726" x="11.03448275862069" y="44.13793103448276" /><rect height="2.7586206896551726" width="2.7586206896551726" x="16.551724137931036" y="44.13793103448276" /><rect height="2.7586206896551726" width="2.7586206896551726" x="19.310344827586206" y="44.13793103448276" /><rect height="2.7586206896551726" width="2.7586206896551726" x="22.06896551724138" y="44.13793103448276" /><rect height="2.7586206896551726" width="2.7586206896551726" x="30.344827586206897" y="44.13793103448276" /><rect height="2.7586206896551726" width="2.7586206896551726" x="35.862068965517246" y="44.13793103448276" /><rect height="2.7586206896551726" width="2.7586206896551726" x="38.62068965517241" y="44.13793103448276" /><rect height="2.7586206896551726" width="2.7586206896551726" x="41.37931034482759" y="44.13793103448276" /><rect height="2.7586206896551726" width="2.7586206896551726" x="46.896551724137936" y="44.13793103448276" /><rect height="2.7586206896551726" width="2.7586206896551726" x="52.41379310344828" y="44.13793103448276" /><rect height="2.7586206896551726" width="2.7586206896551726" x="57.931034482758626" y="44.13793103448276" /><rect height="2.7586206896551726" width="2.7586206896551726" x="74.48275862068967" y="44.13793103448276" /><rect height="2.7586206896551726" width="2.7586206896551726" x="8.275862068965518" y="46.896551724137936" /><rect height="2.7586206896551726" width="2.7586206896551726" x="27.586206896551726" y="46.896551724137936" /><rect height="2.7586206896551726" width="2.7586206896551726" x="33.10344827586207" y="46.896551724137936" /><rect height="2.7586206896551726" width="2.7586206896551726" x="41.37931034482759" y="46.896551724137936" /><rect height="2.7586206896551726" width="2.7586206896551726" x="46.896551724137936" y="46.896551724137936" /><rect height="2.7586206896551726" width="2.7586206896551726" x="57.931034482758626" y="46.896551724137936" /><rect height="2.7586206896551726" width="2.7586206896551726" x="60.689655172413794" y="46.896551724137936" /><rect height="2.7586206896551726" width="2.7586206896551726" x="63.44827586206897" y="46.896551724137936" /><rect height="2.7586206896551726" width="2.7586206896551726" x="68.96551724137932" y="46.896551724137936" /><rect height="2.7586206896551726" width="2.7586206896551726" x="77.24137931034483" y="46.896551724137936" /><rect height="2.7586206896551726" width="2.7586206896551726" x="0.0" y="49.65517241379311" /><rect height="2.7586206896551726" width="2.7586206896551726" x="8.275862068965518" y="49.65517241379311" /><rect height="2.7586206896551726" width="2.7586206896551726" x="11.03448275862069" y="49.65517241379311" /><rect height="2.7586206896551726" width="2.7586206896551726" x="13.793103448275863" y="49.65517241379311" /><rect height="2.7586206896551726" width="2.7586206896551726" x="16.551724137931036" y="49.65517241379311" /><rect height="2.7586206896551726" width="2.7586206896551726" x="22.06896551724138" y="49.65517241379311" /><rect height="2.7586206896551726" width="2.7586206896551726" x="27.586206896551726" y="49.65517241379311" /><rect height="2.7586206896551726" width="2.7586206896551726" x="33.10344827586207" y="49.65517241379311" /><rect height="2.7586206896551726" width="2.7586206896551726" x="35.862068965517246" y="49.65517241379311" /><rect height="2.7586206896551726" width="2.7586206896551726" x="44.13793103448276" y="49.65517241379311" /><rect height="2.7586206896551726" width="2.7586206896551726" x="46.896551724137936" y="49.65517241379311" /><rect height="2.7586206896551726" width="2.7586206896551726" x="55.17241379310345" y="49.65517241379311" /><rect height="2.7586206896551726" width="2.7586206896551726" x="63.44827586206897" y="49.65517241379311" /><rect height="2.7586206896551726" width="2.7586206896551726" x="66.20689655172414" y="49.65517241379311" /><rect height="2.7586206896551726" width="2.7586206896551726" x="74.48275862068967" y="49.65517241379311" /><rect height="2.7586206896551726" width="2.7586206896551726" x="77.24137931034483" y="49.65517241379311" /><rect height="2.7586206896551726" width="2.7586206896551726" x="13.793103448275863" y="52.41379310344828" /><rect height="2.7586206896551726" width="2.7586206896551726" x="24.827586206896555" y="52.41379310344828" /><rect height="2.7586206896551726" width="2.7586206896551726" x="30.344827586206897" y="52.41379310344828" /><rect height="2.7586206896551726" width="2.7586206896551726" x="33.10344827586207" y="52.41379310344828" /><rect height="2.7586206896551726" width="2.7586206896551726" x="35.862068965517246" y="52.41379310344828" /><rect height="2.7586206896551726" width="2.7586206896551726" x="41.37931034482759" y="52.41379310344828" /><rect height="2.7586206896551726" width="2.7586206896551726" x="44.13793103448276" y="52.41379310344828" /><rect height="2.7586206896551726" width="2.7586206896551726" x="46.896551724137936" y="52.41379310344828" /><rect height="2.7586206896551726" width="2.7586206896551726" x="49.65517241379311" y="52.41379310344828" /><rect height="2.7586206896551726" width="2.7586206896551726" x="60.689655172413794" y="52.41379310344828" /><rect height="2.7586206896551726" width="2.7586206896551726" x="74.48275862068967" y="52.41379310344828" /><rect height="2.7586206896551726" width="2.7586206896551726" x="77.24137931034483" y="52.41379310344828" /><rect height="2.7586206896551726" width="2.7586206896551726" x="0.0" y="55.17241379310345" /><rect height="2.7586206896551726" width="2.7586206896551726" x="5.517241379310345" y="55.17241379310345" /><rect height="2.7586206896551726" width="2.7586206896551726" x="16.551724137931036" y="55.17241379310345" /><rect height="2.7586206896551726" width="2.7586206896551726" x="24.827586206896555" y="55.17241379310345" /><rect height="2.7586206896551726" width="2.7586206896551726" x="27.586206896551726" y="55.17241379310345" /><rect height="2.7586206896551726" width="2.7586206896551726" x="30.344827586206897" y="55.17241379310345" /><rect height="2.7586206896551726" width="2.7586206896551726" x="33.10344827586207" y="55.17241379310345" /><rect height="2.7586206896551726" width="2.7586206896551726" x="38.62068965517241" y="55.17241379310345" /><rect height="2.7586206896551726" width="2.7586206896551726" x="55.17241379310345" y="55.17241379310345" /><rect height="2.7586206896551726" width="2.7586206896551726" x="57.931034482758626" y="55.17241379310345" /><rect height="2.7586206896551726" width="2.7586206896551726" x="60.689655172413794" y="55.17241379310345" /><rect height="2.7586206896551726" width="2.7586206896551726" x="63.44827586206897" y="55.17241379310345" /><rect height="2.7586206896551726" width="2.7586206896551726" x="66.20689655172414" y="55.17241379310345" /><rect height="2.7586206896551726" width="2.7586206896551726" x="71.72413793103449" y="55.17241379310345" /><rect height="2.7586206896551726" width="2.7586206896551726" x="22.06896551724138" y="57.931034482758626" /><rect height="2.7586206896551726" width="2.7586206896551726" x="24.827586206896555" y="57.931034482758626" /><rect height="2.7586206896551726" width="2.7586206896551726" x="27.586206896551726" y="57.931034482758626" /><rect height="2.7586206896551726" width="2.7586206896551726" x="35.862068965517246" y="57.931034482758626" /><rect height="2.7586206896551726" width="2.7586206896551726" x="44.13793103448276" y="57.931034482758626" /><rect height="2.7586206896551726" width="2.7586206896551726" x="55.17241379310345" y="57.931034482758626" /><rect height="2.7586206896551726" width="2.7586206896551726" x="66.20689655172414" y="57.931034482758626" /><rect height="2.7586206896551726" width="2.7586206896551726" x="71.72413793103449" y="57.931034482758626" /><rect height="2.7586206896551726" width="2.7586206896551726" x="74.48275862068967" y="57.931034482758626" /><rect height="2.7586206896551726" width="2.7586206896551726" x="77.24137931034483" y="57.931034482758626" /><rect height="2.7586206896551726" width="2.7586206896551726" x="0.0" y="60.689655172413794" /><rect height="2.7586206896551726" width="2.7586206896551726" x="2.7586206896551726" y="60.689655172413794" /><rect height="2.7586206896551726" width="2.7586206896551726" x="5.517241379310345" y="60.689655172413794" /><rect height="2.7586206896551726" width="2.7586206896551726" x="8.275862068965518" y="60.689655172413794" /><rect height="2.7586206896551726" width="2.7586206896551726" x="11.03448275862069" y="60.689655172413794" /><rect height="2.7586206896551726" width="2.7586206896551726" x="13.793103448275863" y="60.689655172413794" /><rect height="2.7586206896551726" width="2.7586206896551726" x="16.551724137931036" y="60.689655172413794" /><rect height="2.7586206896551726" width="2.7586206896551726" x="24.827586206896555" y="60.689655172413794" /><rect height="2.7586206896551726" width="2.7586206896551726" x="30.344827586206897" y="60.689655172413794" /><rect height="2.7586206896551726" width="2.7586206896551726" x="33.10344827586207" y="60.689655172413794" /><rect height="2.7586206896551726" width="2.7586206896551726" x="35.862068965517246" y="60.689655172413794" /><rect height="2.7586206896551726" width="2.7586206896551726" x="38.62068965517241" y="60.689655172413794" /><rect height="2.7586206896551726" width="2.7586206896551726" x="46.896551724137936" y="60.689655172413794" /><rect height="2.7586206896551726" width="2.7586206896551726" x="49.65517241379311" y="60.689655172413794" /><rect height="2.7586206896551726" width="2.7586206896551726" x="55.17241379310345" y="60.689655172413794" /><rect height="2.7586206896551726" width="2.7586206896551726" x="60.689655172413794" y="60.689655172413794" /><rect height="2.7586206896551726" width="2.7586206896551726" x="66.20689655172414" y="60.689655172413794" /><rect height="2.7586206896551726" width="2.7586206896551726" x="74.48275862068967" y="60.689655172413794" /><rect height="2.7586206896551726" width="2.7586206896551726" x="0.0" y="63.44827586206897" /><rect height="2.7586206896551726" width="2.7586206896551726" x="16.551724137931036" y="63.44827586206897" /><rect height="2.7586206896551726" width="2.7586206896551726" x="22.06896551724138" y="63.44827586206897" /><rect height="2.7586206896551726" width="2.7586206896551726" x="24.827586206896555" y="63.44827586206897" /><rect height="2.7586206896551726" width="2.7586206896551726" x="35.862068965517246" y="63.44827586206897" /><rect height="2.7586206896551726" width="2.7586206896551726" x="41.37931034482759" y="63.44827586206897" /><rect height="2.7586206896551726" width="2.7586206896551726" x="49.65517241379311" y="63.44827586206897" /><rect height="2.7586206896551726" width="2.7586206896551726" x="55.17241379310345" y="63.44827586206897" /><rect height="2.7586206896551726" width="2.7586206896551726" x="66.20689655172414" y="63.44827586206897" /><rect height="2.7586206896551726" width="2.7586206896551726" x="68.96551724137932" y="63.44827586206897" /><rect height="2.7586206896551726" width="2.7586206896551726" x="71.72413793103449" y="63.44827586206897" /><rect height="2.7586206896551726" width="2.7586206896551726" x="74.48275862068967" y="63.44827586206897" /><rect height="2.7586206896551726" width="2.7586206896551726" x="0.0" y="66.20689655172414" /><rect height="2.7586206896551726" width="2.7586206896551726" x="5.517241379310345" y="66.20689655172414" /><rect height="2.7586206896551726" width="2.7586206896551726" x="8.275862068965518" y="66.20689655172414" /><rect height="2.7586206896551726" width="2.7586206896551726" x="11.03448275862069" y="66.20689655172414" /><rect height="2.7586206896551726" width="2.7586206896551726" x="16.551724137931036" y="66.20689655172414" /><rect height="2.7586206896551726" width="2.7586206896551726" x="24.827586206896555" y="66.20689655172414" /><rect height="2.7586206896551726" width="2.7586206896551726" x="30.344827586206897" y="66.20689655172414" /><rect height="2.7586206896551726" width="2.7586206896551726" x="38.62068965517241" y="66.20689655172414" /><rect height="2.7586206896551726" width="2.7586206896551726" x="46.896551724137936" y="66.20689655172414" /><rect height="2.7586206896551726" width="2.7586206896551726" x="49.65517241379311" y="66.20689655172414" /><rect height="2.7586206896551726" width="2.7586206896551726" x="55.17241379310345" y="66.20689655172414" /><rect height="2.7586206896551726" width="2.7586206896551726" x="57.931034482758626" y="66.20689655172414" /><rect height="2.7586206896551726" width="2.7586206896551726" x="60.689655172413794" y="66.20689655172414" /><rect height="2.7586206896551726" width="2.7586206896551726" x="63.44827586206897" y="66.20689655172414" /><rect height="2.7586206896551726" width="2.7586206896551726" x="66.20689655172414" y="66.20689655172414" /><rect height="2.7586206896551726" width="2.7586206896551726" x="77.24137931034483" y="66.20689655172414" /><rect height="2.7586206896551726" width="2.7586206896551726" x="0.0" y="68.96551724137932" /><rect height="2.7586206896551726" width="2.7586206896551726" x="5.517241379310345" y="68.96551724137932" /><rect height="2.7586206896551726" width="2.7586206896551726" x="8.275862068965518" y="68.96551724137932" /><rect height="2.7586206896551726" width="2.7586206896551726" x="11.03448275862069" y="68.96551724137932" /><rect height="2.7586206896551726" width="2.7586206896551726" x="16.551724137931036" y="68.96551724137932" /><rect height="2.7586206896551726" width="2.7586206896551726" x="22.06896551724138" y="68.96551724137932" /><rect height="2.7586206896551726" width="2.7586206896551726" x="24.827586206896555" y="68.96551724137932" /><rect height="2.7586206896551726" width="2.7586206896551726" x="27.586206896551726" y="68.96551724137932" /><rect height="2.7586206896551726" width="2.7586206896551726" x="30.344827586206897" y="68.96551724137932" /><rect height="2.7586206896551726" width="2.7586206896551726" x="33.10344827586207" y="68.96551724137932" /><rect height="2.7586206896551726" width="2.7586206896551726" x="38.62068965517241" y="68.96551724137932" /><rect height="2.7586206896551726" width="2.7586206896551726" x="52.41379310344828" y="68.96551724137932" /><rect height="2.7586206896551726" width="2.7586206896551726" x="60.689655172413794" y="68.96551724137932" /><rect height="2.7586206896551726" width="2.7586206896551726" x="63.44827586206897" y="68.96551724137932" /><rect height="2.7586206896551726" width="2.7586206896551726" x="66.20689655172414" y="68.96551724137932" /><rect height="2.7586206896551726" width="2.7586206896551726" x="68.96551724137932" y="68.96551724137932" /><rect height="2.7586206896551726" width="2.7586206896551726" x="71.72413793103449" y="68.96551724137932" /><rect height="2.7586206896551726" width="2.7586206896551726" x="74.48275862068967" y="68.96551724137932" /><rect height="2.7586206896551726" width="2.7586206896551726" x="0.0" y="71.72413793103449" /><rect height="2.7586206896551726" width="2.7586206896551726" x="5.517241379310345" y="71.72413793103449" /><rect height="2.7586206896551726" width="2.7586206896551726" x="8.275862068965518" y="71.72413793103449" /><rect height="2.7586206896551726" width="2.7586206896551726" x="11.03448275862069" y="71.72413793103449" /><rect height="2.7586206896551726" width="2.7586206896551726" x="16.551724137931036" y="71.72413793103449" /><rect height="2.7586206896551726" width="2.7586206896551726" x="30.344827586206897" y="71.72413793103449" /><rect height="2.7586206896551726" width="2.7586206896551726" x="33.10344827586207" y="71.72413793103449" /><rect height="2.7586206896551726" width="2.7586206896551726" x="35.862068965517246" y="71.72413793103449" /><rect height="2.7586206896551726" width="2.7586206896551726" x="57.931034482758626" y="71.72413793103449" /><rect height="2.7586206896551726" width="2.7586206896551726" x="66.20689655172414" y="71.72413793103449" /><rect height="2.7586206896551726" width="2.7586206896551726" x="68.96551724137932" y="71.72413793103449" /><rect height="2.7586206896551726" width="2.7586206896551726" x="71.72413793103449" y="71.72413793103449" /><rect height="2.7586206896551726" width="2.7586206896551726" x="77.24137931034483" y="71.72413793103449" /><rect height="2.7586206896551726" width="2.7586206896551726" x="0.0" y="74.48275862068967" /><rect height="2.7586206896551726" width="2.7586206896551726" x="16.551724137931036" y="74.48275862068967" /><rect height="2.7586206896551726" width="2.7586206896551726" x="24.827586206896555" y="74.48275862068967" /><rect height="2.7586206896551726" width="2.7586206896551726" x="27.586206896551726" y="74.48275862068967" /><rect height="2.7586206896551726" width="2.7586206896551726" x="41.37931034482759" y="74.48275862068967" /><rect height="2.7586206896551726" width="2.7586206896551726" x="46.896551724137936" y="74.48275862068967" /><rect height="2.7586206896551726" width="2.7586206896551726" x="52.41379310344828" y="74.48275862068967" /><rect height="2.7586206896551726" width="2.7586206896551726" x="55.17241379310345" y="74.48275862068967" /><rect height="2.7586206896551726" width="2.7586206896551726" x="57.931034482758626" y="74.48275862068967" /><rect height="2.7586206896551726" width="2.7586206896551726" x="74.48275862068967" y="74.48275862068967" /><rect height="2.7586206896551726" width="2.7586206896551726" x="0.0" y="77.24137931034483" /><rect height="2.7586206896551726" width="2.7586206896551726" x="2.7586206896551726" y="77.24137931034483" /><rect height="2.7586206896551726" width="2.7586206896551726" x="5.517241379310345" y="77.24137931034483" /><rect height="2.7586206896551726" width="2.7586206896551726" x="8.275862068965518" y="77.24137931034483" /><rect height="2.7586206896551726" width="2.7586206896551726" x="11.03448275862069" y="77.24137931034483" /><rect height="2.7586206896551726" width="2.7586206896551726" x="13.793103448275863" y="77.24137931034483" /><rect height="2.7586206896551726" width="2.7586206896551726" x="16.551724137931036" y="77.24137931034483" /><rect height="2.7586206896551726" width="2.7586206896551726" x="22.06896551724138" y="77.24137931034483" /><rect height="2.7586206896551726" width="2.7586206896551726" x="24.827586206896555" y="77.24137931034483" /><rect height="2.7586206896551726" width="2.7586206896551726" x="33.10344827586207" y="77.24137931034483" /><rect height="2.7586206896551726" width="2.7586206896551726" x="35.862068965517246" y="77.24137931034483" /><rect height="2.7586206896551726" width="2.7586206896551726" x="46.896551724137936" y="77.24137931034483" /><rect height="2.7586206896551726" width="2.7586206896551726" x="55.17241379310345" y="77.24137931034483" /><rect height="2.7586206896551726" width="2.7586206896551726" x="60.689655172413794" y="77.24137931034483" /><rect height="2.7586206896551726" width="2.7586206896551726" x="63.44827586206897" y="77.24137931034483" /><rect height="2.7586206896551726" width="2.7586206896551726" x="68.96551724137932" y="77.24137931034483" /><rect height="2.7586206896551726" width="2.7586206896551726" x="74.48275862068967" y="77.24137931034483" /></g></g></svg>